<svg width="273" height="50" viewBox="0 0 273 50" fill="none" xmlns="http://www.w3.org/2000/svg">
<rect x="0.275642" y="0.275642" width="272.449" height="49.4487" rx="24.7244" fill="url(#paint0_linear_18_46)"/>
<rect x="0.275642" y="0.275642" width="272.449" height="49.4487" rx="24.7244" stroke="#383A39" stroke-width="0.551283"/>
<path d="M55.4788 32.569C54.7827 32.569 54.1597 32.3902 53.6097 32.0325C53.0598 31.6748 52.6252 31.1556 52.306 30.4749C51.9868 29.7942 51.8271 28.9673 51.8271 27.9943C51.8271 27.0098 51.9887 26.179 52.3117 25.5022C52.6386 24.8214 53.079 24.308 53.6328 23.9619C54.1866 23.6119 54.8039 23.4369 55.4846 23.4369C56.0038 23.4369 56.4307 23.5254 56.7653 23.7023C57.0999 23.8753 57.3652 24.0849 57.5614 24.3311C57.7575 24.5734 57.9094 24.8022 58.0171 25.0176H58.1037V20.5986H60.1978V32.4132H58.144V31.0172H58.0171C57.9094 31.2326 57.7537 31.4614 57.5499 31.7037C57.346 31.9421 57.0768 32.146 56.7422 32.3152C56.4076 32.4844 55.9865 32.569 55.4788 32.569ZM56.0615 30.8557C56.5038 30.8557 56.8807 30.7364 57.1922 30.498C57.5037 30.2557 57.7402 29.9192 57.9018 29.4884C58.0633 29.0577 58.144 28.5558 58.144 27.9828C58.144 27.4097 58.0633 26.9117 57.9018 26.4886C57.7441 26.0656 57.5095 25.7368 57.198 25.5022C56.8903 25.2676 56.5115 25.1503 56.0615 25.1503C55.5961 25.1503 55.2077 25.2714 54.8962 25.5137C54.5847 25.756 54.3501 26.0906 54.1924 26.5175C54.0347 26.9444 53.9559 27.4328 53.9559 27.9828C53.9559 28.5366 54.0347 29.0308 54.1924 29.4654C54.3539 29.8961 54.5904 30.2365 54.9019 30.4865C55.2173 30.7326 55.6038 30.8557 56.0615 30.8557Z" fill="white"/>
<path d="M50.8552 20.5986V32.4132H48.7668V20.5986H50.8552Z" fill="white"/>
<path d="M45.3437 32.4136V23.5526H47.432V32.4136H45.3437ZM46.3936 22.295C46.0628 22.295 45.7782 22.1854 45.5398 21.9662C45.3014 21.7431 45.1821 21.4758 45.1821 21.1643C45.1821 20.8489 45.3014 20.5816 45.5398 20.3624C45.7782 20.1394 46.0628 20.0278 46.3936 20.0278C46.7282 20.0278 47.0128 20.1394 47.2474 20.3624C47.4858 20.5816 47.605 20.8489 47.605 21.1643C47.605 21.4758 47.4858 21.7431 47.2474 21.9662C47.0128 22.1854 46.7282 22.295 46.3936 22.295Z" fill="white"/>
<path d="M41.9199 28.6865V23.5522H44.0083V32.4132H41.9834V30.8383H41.8911C41.6911 31.3344 41.3623 31.7402 40.9046 32.0555C40.4508 32.3709 39.8912 32.5286 39.2259 32.5286C38.6451 32.5286 38.1317 32.3997 37.6856 32.1421C37.2433 31.8806 36.8972 31.5017 36.6472 31.0056C36.3972 30.5056 36.2722 29.9018 36.2722 29.1942V23.5522H38.3605V28.8711C38.3605 29.4326 38.5144 29.8788 38.8221 30.2095C39.1297 30.5403 39.5335 30.7056 40.0335 30.7056C40.3412 30.7056 40.6392 30.6306 40.9277 30.4806C41.2161 30.3307 41.4526 30.1076 41.6373 29.8115C41.8257 29.5115 41.9199 29.1365 41.9199 28.6865Z" fill="white"/>
<path d="M26.5 32.4132V20.5986H31.0228C31.8766 20.5986 32.5861 20.7332 33.1515 21.0025C33.7207 21.2678 34.1457 21.6313 34.4264 22.0928C34.711 22.5543 34.8533 23.0773 34.8533 23.6619C34.8533 24.1426 34.761 24.5541 34.5764 24.8964C34.3918 25.2349 34.1437 25.5099 33.8322 25.7214C33.5207 25.9329 33.1726 26.0848 32.7881 26.1771V26.2925C33.2073 26.3156 33.6092 26.4444 33.9937 26.679C34.3822 26.9098 34.6995 27.2367 34.9456 27.6597C35.1917 28.0828 35.3148 28.5943 35.3148 29.1942C35.3148 29.8057 35.1667 30.3557 34.8706 30.8441C34.5745 31.3287 34.1283 31.7114 33.5322 31.9921C32.9361 32.2729 32.1862 32.4132 31.2824 32.4132H26.5ZM28.6402 30.6249H30.942C31.7189 30.6249 32.2785 30.4768 32.6208 30.1807C32.9669 29.8807 33.14 29.4961 33.14 29.0269C33.14 28.677 33.0534 28.3616 32.8804 28.0808C32.7073 27.7962 32.4612 27.5732 32.1419 27.4117C31.8227 27.2463 31.442 27.1636 30.9997 27.1636H28.6402V30.6249ZM28.6402 25.6233H30.7574C31.1266 25.6233 31.4593 25.556 31.7554 25.4214C32.0516 25.2829 32.2842 25.0887 32.4535 24.8387C32.6265 24.5849 32.7131 24.2849 32.7131 23.9388C32.7131 23.4811 32.5515 23.1042 32.2285 22.8081C31.9093 22.512 31.4343 22.3639 30.8036 22.3639H28.6402V25.6233Z" fill="white"/>
<path d="M104.728 13.9107C104.954 13.8911 104.892 13.862 105.046 13.9803C104.962 17.3351 105.036 21.0829 105.058 24.4609C106.445 22.8801 108.189 22.0003 110.328 22.2089C115.534 22.7172 114.341 27.3339 114.449 31.0262C114.504 32.8911 114.401 33.732 116.456 33.9036C116.465 34.4409 116.453 35.0087 116.45 35.5486C113.572 35.5398 110.596 35.5055 107.725 35.5646L107.721 33.9345C107.783 33.9179 107.845 33.9019 107.907 33.8865C108.343 33.7761 108.815 33.6769 109.044 33.2497C109.581 32.2455 109.434 26.6589 109.211 25.8038C108.118 23.5319 105.985 25.6113 105.061 26.8413C104.987 28.0076 104.812 32.3333 105.445 33.4055C105.649 33.7497 106.264 33.8473 106.638 33.9126C106.648 34.4515 106.639 35.0099 106.637 35.5506L97.9216 35.5457L97.9207 33.9051C98.7773 33.8491 99.842 33.7368 99.891 32.6342C100.098 27.9463 99.9621 23.2078 99.9567 18.5111C99.9548 16.9202 99.2312 16.8853 97.8967 16.7525L97.9126 15.1299C99.8889 14.5744 102.635 14.3903 104.728 13.9107Z" fill="white"/>
<path d="M204.028 13.9043L204.057 13.9126C204.084 13.9427 204.119 13.98 204.158 14.0243C204.211 19.1233 204.16 24.3801 204.18 29.4654C204.187 31.2092 204.058 32.4377 204.274 33.8981C204.439 35.0171 205.811 34.8853 206.248 35.1278C206.317 35.369 206.303 35.2864 206.206 35.563C205.922 35.6666 202.946 35.9414 202.256 36.0501C202.115 35.2543 202.091 34.5232 202.09 33.7184C199.298 36.3473 196.2 37.0333 193.125 34.4047C191.992 33.2759 191.272 31.7977 191.082 30.209C190.837 28.2282 191.294 26.0978 192.535 24.5086C193.505 23.2427 194.941 22.4186 196.522 22.2206C198.678 21.9607 200.316 22.775 201.956 24.058C201.962 22.6452 202.223 16.5431 201.613 15.7711C201.213 15.2664 200.37 15.3593 199.799 15.3086C199.676 15.1291 199.713 14.9277 199.725 14.7089C199.639 14.7782 203.512 14.0385 204.028 13.9043ZM198.744 35.0606C200.025 34.7259 201.213 33.9564 201.954 32.8467L201.956 24.9608C200.285 23.6647 199.239 23.0121 197.033 23.1929C195.942 23.4531 195.097 23.9185 194.528 24.9366C192.654 28.291 193.341 36.0493 198.744 35.0606Z" fill="white"/>
<path d="M150.173 22.219C153.983 21.8717 157.353 24.6813 157.7 28.4944C158.047 32.3076 155.24 35.6802 151.43 36.0275C147.62 36.3747 144.25 33.5651 143.903 29.752C143.556 25.9389 146.363 22.5663 150.173 22.219ZM151.665 35.3227C154.048 34.7763 154.753 33.0466 154.989 30.8237C155.351 27.4068 154.829 22.1893 150.064 22.947C146.239 23.6114 146.283 28.6293 146.744 31.6404C147.201 34.6271 148.794 35.4593 151.665 35.3227Z" fill="white"/>
<path d="M123.334 22.1952C126.314 21.9797 129.507 23.2472 130.463 26.2975C130.763 27.2541 130.785 27.9743 130.875 28.9605L122.016 28.9554C122.021 31.044 122.446 33.8577 125.178 34.1395C126.871 34.3143 127.749 33.3809 128.937 32.3621C129.224 32.334 129.303 32.4464 129.6 32.6102L130.416 33.1022C130.349 33.1976 130.279 33.2912 130.207 33.3828C127.705 36.5474 122.249 36.8935 119.163 34.4078C115.482 31.4427 115.876 25.3382 120.12 23.0978C121.211 22.5221 122.123 22.3224 123.334 22.1952ZM124.765 27.3992L126.031 27.3989C126.018 25.6786 125.795 23.647 123.538 23.9458C121.998 24.6165 122.137 25.9385 122.038 27.4057L124.765 27.3992Z" fill="white"/>
<path d="M91.009 18.4518L92.6511 18.4502C92.6092 19.8047 92.6376 21.2801 92.6523 22.6369C93.8843 22.6885 95.2646 22.6685 96.5079 22.6761L96.5043 24.3841L92.637 24.3816L92.6288 29.3709C92.6275 30.507 92.582 31.706 92.7532 32.8316C92.8552 33.3586 93.0345 33.758 93.6112 33.8358C94.6422 33.975 94.9945 33.3633 95.4789 32.5636L97.0047 33.0639C96.6515 33.8525 96.3121 34.3285 95.6694 34.8889C93.9009 36.296 90.4246 36.5652 88.7296 34.9735C87.2537 33.5878 87.58 30.7442 87.5873 28.8685C87.5907 27.3776 87.5844 25.8866 87.5683 24.3958L85.7161 24.375L85.721 22.7512C88.6114 22.6539 90.4255 21.3042 91.009 18.4518Z" fill="white"/>
<path d="M178.479 22.1714C178.66 22.1635 178.703 22.1535 178.862 22.2397C179.224 22.8422 179.259 24.1079 179.321 24.8465C180.669 23.2285 182.615 21.9493 184.818 22.1949C188.351 22.5888 188.443 25.1827 188.327 28.0372C188.242 29.2393 188.41 31.2068 188.308 32.3109C188.018 35.4595 189.968 34.4865 190.4 35.0256C190.409 35.2624 190.446 35.3028 190.346 35.502C189.546 35.5994 184.431 35.5976 183.857 35.4685C183.851 35.4244 183.846 35.3802 183.844 35.3358C183.78 34.1969 186.064 35.7124 186.06 33.0763C186.057 30.4225 186.217 27.7229 186.008 25.0519C185.797 24.2952 185.21 23.4764 184.428 23.2694C182.123 22.6591 180.52 24.2304 179.311 25.8665C179.296 28.2914 179.253 30.7987 179.331 33.2282C179.399 35.334 180.807 34.5021 181.388 34.9872C181.455 35.3092 181.472 35.1947 181.355 35.47C180.784 35.6531 176.081 35.5137 175.052 35.5461C174.951 35.4583 174.937 35.3149 174.909 35.1818C175.154 34.5569 176.21 34.9721 176.714 34.4694C177.365 33.8203 177.114 28.4961 177.111 27.3209C177.108 26.5443 177.27 24.5452 176.729 23.9799C176.45 23.6885 176.008 23.6454 175.63 23.616C175.405 23.5987 175.14 23.6278 174.969 23.4589C174.908 23.1905 174.932 23.2505 175.021 22.9656C176.194 22.7248 177.328 22.507 178.479 22.1714Z" fill="white"/>
<path d="M158.435 22.6761L162.761 22.6811C162.763 24.3789 162.513 32.8464 163.098 33.9359C163.406 34.5128 164.139 34.8147 164.738 34.9849C165.447 35.187 166.473 34.8495 167.091 34.5041C167.968 34.0137 168.945 33.093 169.22 32.1072C169.525 31.0231 169.662 24.7648 169.183 23.9468C168.773 23.246 168.015 23.5863 167.42 23.4069C167.271 23.3619 167.258 23.2786 167.19 23.1479C167.191 22.9372 167.18 22.8751 167.309 22.7152C168.466 22.615 170.417 22.6779 171.632 22.6814L171.637 26.4287C171.635 27.5082 171.419 33.5686 171.857 34.2053C172.295 34.8406 173.335 34.6161 173.685 35.2265L173.615 35.4536C173.447 35.5774 173.158 35.5601 172.947 35.5644C171.885 35.586 170.965 35.7724 169.961 36.1079C169.526 35.0378 169.504 34.1878 169.409 33.0535C168.04 35.2398 165.431 36.7307 162.846 35.7496C160.428 34.7682 160.573 32.9863 160.504 30.7441C160.441 28.7245 160.726 26.0727 160.349 24.1006C160.217 23.4113 159.114 23.5565 158.546 23.3389C158.356 23.0629 158.422 23.0828 158.435 22.6761Z" fill="white"/>
<path d="M212.704 22.2009C215.919 21.9417 218.271 23.7857 218.643 27.047L209.683 27.0489C209.51 30.0211 209.546 35.0349 213.666 35.2331C215.092 35.3016 216.055 34.8901 217.096 33.9472C217.337 33.6757 217.71 33.095 217.932 32.7751C218.086 32.6626 218.296 32.7076 218.494 32.723L218.548 32.8821C218.461 33.2197 218.243 33.5644 218.038 33.8478C217.192 34.9896 215.927 35.7483 214.523 35.9569C205.742 37.3243 204.098 23.5185 212.704 22.2009ZM209.739 26.4327L212.911 26.4332L215.954 26.4329C216.015 24.5491 215.466 22.8848 213.269 22.8424C213.039 22.839 212.809 22.8485 212.58 22.871C210.543 23.4279 210.069 24.498 209.739 26.4327Z" fill="white"/>
<path d="M143.07 13.9352C145.798 13.9113 149.212 16.1604 146.237 17.3101C145.159 17.7271 143.677 12.5703 141.067 15.2794C139.441 16.9677 139.931 20.801 139.928 22.6761C140.588 22.6885 142.19 22.4613 142.569 22.935C142.63 23.2015 142.648 23.123 142.573 23.3549C141.972 23.4725 140.617 23.425 139.931 23.4221C139.928 25.1489 139.712 32.9892 140.102 34.1042C140.221 34.4434 140.424 34.5737 140.732 34.7242C141.231 34.8194 142.166 34.7034 142.473 35.0147C142.521 35.2283 142.53 35.2671 142.456 35.4699C141.995 35.6361 136.453 35.5708 135.7 35.5086C135.556 35.3132 135.587 35.3991 135.585 35.1522C136.034 34.3364 137.442 35.3972 137.635 33.5377C137.765 32.2926 137.719 31.0685 137.719 29.8194L137.715 23.4193C136.963 23.4305 135.928 23.5061 135.263 23.1975L135.242 22.917C135.829 22.5848 137.011 22.6692 137.712 22.6805C137.698 20.2109 137.466 17.5961 139.22 15.6541C140.341 14.413 141.477 14.0341 143.07 13.9352Z" fill="white"/>
<path d="M224.509 25.4832C225.458 23.6265 227.838 20.8347 230.2 22.8115C230.85 23.356 231.299 24.863 230.117 25.1627C228.365 25.6067 229.112 23.3883 227.729 23.2954C227.152 23.273 226.464 23.8392 226.074 24.2362C225.521 24.7903 225.114 25.4734 224.889 26.2239C224.491 27.5784 224.636 31.5225 224.646 33.123C224.714 34.8905 225.47 34.8078 226.989 34.8456C226.978 35.0434 226.961 35.2408 226.941 35.4379L226.768 35.5402C225.921 35.5565 220.711 35.6081 220.187 35.46C220.186 35.3598 220.181 35.2538 220.192 35.1544C220.258 34.6244 221.571 34.8763 221.948 34.5548C222.254 34.2944 222.328 33.803 222.363 33.4276C222.478 32.1802 222.653 24.875 222.063 24.2151C221.642 23.7431 220.795 23.8062 220.219 23.7595C220.148 23.6036 220.225 23.3458 220.261 23.1663C220.764 22.9054 223.163 22.4375 223.963 22.2026C224.361 22.4673 224.493 24.9944 224.509 25.4832Z" fill="white"/>
<path d="M235.196 22.1941C235.292 22.1872 235.388 22.1824 235.483 22.1796C236.867 22.1425 237.552 22.648 238.495 23.5379C238.71 23.1472 238.975 22.4574 239.447 22.4038C239.736 22.7046 239.748 26.1589 239.444 26.3728C239.102 26.3268 239.01 26.196 238.949 25.8476C238.608 23.8954 235.815 21.6449 234.083 23.557C233.741 23.9416 233.567 24.4469 233.599 24.9607C233.734 27.1925 237.794 27.7396 239.161 29.168C241.774 31.8989 240.484 35.8768 236.566 36.0445C235.03 35.9685 234.562 35.6068 233.445 34.5748C233.187 34.957 232.862 35.9561 232.362 35.9465C232.048 35.5495 232.068 32.1104 232.396 31.7039C232.884 31.7081 233.566 34.2239 234.763 34.9023C237.873 36.6642 240.467 33.4199 237.995 31.1191C236.379 29.6148 232.986 29.307 232.336 26.6852C231.799 24.4792 233.054 22.7489 235.196 22.1941Z" fill="white"/>
<path d="M244.351 32.759C244.94 32.586 245.576 32.7483 246.009 33.1824C246.443 33.6164 246.605 34.2529 246.432 34.8419C246.259 35.4308 245.779 35.8783 245.18 36.0087C244.683 36.1167 244.163 35.9932 243.769 35.6728C243.373 35.3524 243.145 34.8697 243.147 34.3607C243.151 33.6192 243.641 32.968 244.351 32.759Z" fill="white"/>
<path d="M71.6236 32.9909C71.4286 32.9909 71.2482 32.9751 71.0822 32.9435C70.9189 32.9145 70.7885 32.8803 70.691 32.8407L71.023 31.7264C71.2311 31.787 71.4168 31.816 71.5801 31.8134C71.7434 31.8107 71.887 31.7594 72.0108 31.6593C72.1373 31.5618 72.244 31.3985 72.3309 31.1693L72.4534 30.8413L70.2524 24.6455H71.7698L73.1686 29.2291H73.2318L74.6346 24.6455H76.1559L73.7257 31.4498C73.6125 31.7712 73.4623 32.0465 73.2753 32.2757C73.0882 32.5075 72.8591 32.684 72.5877 32.8052C72.319 32.929 71.9976 32.9909 71.6236 32.9909Z" fill="white"/>
<path d="M64.5518 30.7146V22.6221H65.9822V25.6489H66.0414C66.1152 25.5013 66.2193 25.3446 66.3536 25.1786C66.4879 25.01 66.6697 24.8665 66.8989 24.7479C67.1281 24.6268 67.4205 24.5662 67.7761 24.5662C68.245 24.5662 68.6678 24.686 69.0445 24.9257C69.4238 25.1628 69.7242 25.5145 69.9454 25.9808C70.1693 26.4444 70.2813 27.0134 70.2813 27.6878C70.2813 28.3543 70.172 28.9206 69.9533 29.3869C69.7347 29.8532 69.437 30.2088 69.0603 30.4538C68.6836 30.6988 68.2569 30.8213 67.7801 30.8213C67.4323 30.8213 67.1439 30.7633 66.9147 30.6474C66.6855 30.5315 66.5011 30.3919 66.3615 30.2285C66.2245 30.0626 66.1178 29.9058 66.0414 29.7583H65.9585V30.7146H64.5518ZM65.9545 27.6799C65.9545 28.0724 66.0098 28.4162 66.1205 28.7112C66.2337 29.0062 66.3958 29.2367 66.6065 29.4027C66.8199 29.566 67.078 29.6477 67.381 29.6477C67.6971 29.6477 67.9618 29.5634 68.1752 29.3948C68.3886 29.2236 68.5493 28.9904 68.6573 28.6954C68.7679 28.3977 68.8232 28.0592 68.8232 27.6799C68.8232 27.3032 68.7692 26.9686 68.6612 26.6762C68.5532 26.3838 68.3925 26.1546 68.1792 25.9887C67.9658 25.8227 67.6997 25.7397 67.381 25.7397C67.0754 25.7397 66.8159 25.8201 66.6025 25.9808C66.3892 26.1415 66.2272 26.3667 66.1165 26.6565C66.0085 26.9462 65.9545 27.2874 65.9545 27.6799Z" fill="white"/>
<defs>
<linearGradient id="paint0_linear_18_46" x1="0" y1="25" x2="273" y2="25" gradientUnits="userSpaceOnUse">
<stop stop-color="#191B1C" stop-opacity="0.8"/>
<stop offset="1" stop-color="#191B1C" stop-opacity="0.1"/>
</linearGradient>
</defs>
</svg>
